<svg width="300" height="300" viewBox="0 0 300 300" fill="none" xmlns="http://www.w3.org/2000/svg">
<path d="M150.033 73.0838C107.468 73.0838 73.1344 107.425 73.1344 150C73.1344 192.575 107.468 226.916 150.033 226.916C192.599 226.916 226.933 192.575 226.933 150C226.933 107.425 192.599 73.0838 150.033 73.0838ZM150.033 200.006C122.526 200.006 100.039 177.58 100.039 150C100.039 122.42 122.46 99.9944 150.033 99.9944C177.607 99.9944 200.028 122.42 200.028 150C200.028 177.58 177.54 200.006 150.033 200.006V200.006ZM248.015 69.9375C248.015 79.9119 239.983 87.878 230.078 87.878C220.106 87.878 212.142 79.8449 212.142 69.9375C212.142 60.0301 220.173 51.9971 230.078 51.9971C239.983 51.9971 248.015 60.0301 248.015 69.9375ZM298.946 88.1457C297.808 64.1136 292.32 42.8261 274.718 25.2873C257.183 7.74852 235.901 2.25929 211.874 1.05433C187.111 -0.351445 112.889 -0.351445 88.126 1.05433C64.1662 2.19235 42.8834 7.68158 25.2817 25.2204C7.67987 42.7591 2.25878 64.0466 1.0541 88.0788C-0.351366 112.847 -0.351366 187.086 1.0541 211.854C2.19186 235.886 7.67987 257.174 25.2817 274.713C42.8834 292.251 64.0993 297.741 88.126 298.946C112.889 300.351 187.111 300.351 211.874 298.946C235.901 297.808 257.183 292.318 274.718 274.713C292.253 257.174 297.741 235.886 298.946 211.854C300.351 187.086 300.351 112.914 298.946 88.1457V88.1457ZM266.955 238.43C261.735 251.551 251.629 261.659 238.444 266.947C218.701 274.78 171.852 272.972 150.033 272.972C128.215 272.972 81.2995 274.713 61.623 266.947C48.5053 261.726 38.3993 251.618 33.1121 238.43C25.2817 218.682 27.0887 171.823 27.0887 150C27.0887 128.177 25.3486 81.2507 33.1121 61.5698C38.3324 48.4492 48.4384 38.341 61.623 33.0525C81.3664 25.2203 128.215 27.0278 150.033 27.0278C171.852 27.0278 218.767 25.2873 238.444 33.0525C251.562 38.274 261.668 48.3822 266.955 61.5698C274.785 81.3176 272.978 128.177 272.978 150C272.978 171.823 274.785 218.749 266.955 238.43Z" fill="white"/>
</svg>
