<svg width="300" height="300" viewBox="0 0 300 300" fill="none" xmlns="http://www.w3.org/2000/svg">
<path d="M269.163 74.7654C269.354 78.0464 269.354 81.3283 269.354 84.6093C269.354 184.687 207.488 300 94.4166 300C59.5813 300 27.221 287.578 0 266.016C4.94943 266.719 9.70785 266.953 14.8477 266.953C43.591 266.953 70.0509 255 91.1804 234.61C64.1499 233.906 41.4974 212.11 33.6927 182.109C37.5001 182.812 41.307 183.281 45.3049 183.281C50.825 183.281 56.3457 182.343 61.485 180.703C33.3124 173.671 12.1823 143.203 12.1823 106.406V105.469C20.3673 111.094 29.8859 114.61 39.974 115.078C23.413 101.484 12.5631 78.2809 12.5631 52.0307C12.5631 37.9685 15.6083 25.0779 20.9386 13.8278C51.2053 59.7652 96.7006 89.7647 147.715 93.0465C146.764 87.4215 146.193 81.5627 146.193 75.7032C146.193 33.984 173.604 0 207.678 0C225.381 0 241.37 9.1406 252.602 23.9062C266.497 20.6251 279.822 14.2967 291.625 5.62504C287.055 23.2036 277.348 37.9692 264.594 47.3435C276.967 45.7037 288.96 41.484 300 35.6253C291.626 50.6246 281.156 63.9835 269.163 74.7654Z" fill="white"/>
<path d="M269.163 74.7654C269.354 78.0464 269.354 81.3283 269.354 84.6093C269.354 184.687 207.488 300 94.4166 300C59.5813 300 27.221 287.578 0 266.016C4.94943 266.719 9.70785 266.953 14.8477 266.953C43.591 266.953 70.0509 255 91.1804 234.61C64.1499 233.906 41.4974 212.11 33.6927 182.109C37.5001 182.812 41.307 183.281 45.3049 183.281C50.825 183.281 56.3457 182.343 61.485 180.703C33.3124 173.671 12.1823 143.203 12.1823 106.406V105.469C20.3673 111.094 29.8859 114.61 39.974 115.078C23.413 101.484 12.5631 78.2809 12.5631 52.0307C12.5631 37.9685 15.6083 25.0779 20.9386 13.8278C51.2053 59.7652 96.7006 89.7647 147.715 93.0465C146.764 87.4215 146.193 81.5627 146.193 75.7032C146.193 33.984 173.604 0 207.678 0C225.381 0 241.37 9.1406 252.602 23.9062C266.497 20.6251 279.822 14.2967 291.625 5.62504C287.055 23.2036 277.348 37.9692 264.594 47.3435C276.967 45.7037 288.96 41.484 300 35.6253C291.626 50.6246 281.156 63.9835 269.163 74.7654Z" stroke="white"/>
</svg>
