<svg width="368" height="250" viewBox="0 0 368 250" fill="none" xmlns="http://www.w3.org/2000/svg">
<path d="M360.31 39.1165C356.078 23.7194 343.608 11.5931 327.775 7.47786C299.077 0 184 0 184 0C184 0 68.9238 0 40.2248 7.47786C24.3919 11.5938 11.922 23.7194 7.68972 39.1165C0 67.0247 0 125.253 0 125.253C0 125.253 0 183.48 7.68972 211.389C11.922 226.786 24.3919 238.407 40.2248 242.522C68.9238 250 184 250 184 250C184 250 299.076 250 327.775 242.522C343.608 238.407 356.078 226.786 360.31 211.389C368 183.48 368 125.253 368 125.253C368 125.253 368 67.0247 360.31 39.1165V39.1165ZM146.363 178.119V72.3861L242.545 125.254L146.363 178.119V178.119Z" fill="white"/>
</svg>
